<svg width="75" height="75" viewBox="0 0 75 75" fill="none" xmlns="http://www.w3.org/2000/svg">
<circle cx="37" cy="38" r="37" fill="#D9D9D9"/>
<path d="M34.7987 0.0887072C34.5151 0.11859 33.6297 0.223473 32.8487 0.315465C29.6999 0.674645 26.1291 1.62035 22.9956 2.94046C11.6547 7.67894 3.11938 18.0752 0.764502 29.9996C0.210205 32.8356 0.0754395 34.2289 0.0754395 37.4996C0.0754395 41.7155 0.494385 44.6246 1.60474 48.3008C5.23462 60.3301 14.6846 69.7649 26.745 73.4088C30.3749 74.5051 33.2999 74.9241 37.4999 74.9241C41.7157 74.9241 44.6249 74.5051 48.301 73.3948C60.3303 69.7649 69.7651 60.3149 73.409 48.2545C74.5053 44.6246 74.9243 41.6996 74.9243 37.4996C74.9243 35.7143 74.8352 33.6752 74.7297 32.9241C73.5145 24.2545 69.9438 16.9643 63.9907 11.0088C58.0487 5.09906 50.7889 1.51488 42.2987 0.299645C41.1292 0.13441 35.7139 -0.0167616 34.7987 0.0887072ZM22.5743 23.7137C23.3711 23.9539 23.7438 24.1789 24.284 24.7186C25.3346 25.785 25.5749 26.3692 25.5749 27.9735C25.5749 29.1752 25.5292 29.3996 25.17 30.0289C24.4786 31.1985 22.8743 32.2789 21.7645 32.3082C20.9834 32.3246 21.0157 31.9789 21.87 31.0795C23.0096 29.8942 23.1743 29.4448 23.1743 27.6735C23.1602 25.9643 22.9499 25.3801 22.1553 24.8996C21.4944 24.4948 20.7754 24.5246 19.7249 25.0186C16.9944 26.3252 14.0395 30.6746 12.8858 35.1307C11.3547 41.0703 14.0694 45.8241 18.5395 45.0137C19.8438 44.7735 22.3041 43.5149 23.3711 42.5235C24.2547 41.7155 24.2547 41.6996 24.3438 40.6954C24.5407 38.5936 26.0237 36.4948 28.0059 35.5198C28.9188 35.0686 29.1456 35.0252 30.3749 35.0252C31.5444 35.0252 31.8145 35.085 32.3846 35.3985C34.1993 36.4356 33.8243 38.8496 31.8602 38.8496C30.7206 38.8496 30.1346 38.2637 30.9608 37.9508C31.7711 37.6508 31.4688 36.5246 30.526 36.2703C29.4157 35.9844 28.1547 36.735 27.3602 38.1746C26.3993 39.9149 26.3553 41.9856 27.2688 42.9289C28.1547 43.8741 29.2645 43.1258 30.1206 40.9784C30.5694 39.8844 31.2145 39.2985 31.9657 39.2985C32.6249 39.2985 32.7461 39.7039 32.4596 40.935C32.0389 42.8393 32.3249 43.3338 33.5102 42.7502C33.8993 42.5692 34.545 42.1508 34.934 41.8508L35.6688 41.2649L36.1657 38.6692C36.7059 35.76 36.9139 35.3686 38.0243 35.1606C39.0907 34.9637 39.3309 35.4899 38.9395 37.1539L38.7286 38.0856L39.5096 37.2887C41.3542 35.3985 43.62 34.4692 44.4004 35.2496C44.8194 35.6686 44.7737 36.1948 44.1743 38.0534C43.8901 38.9393 43.4987 40.3356 43.3206 41.1295C43.0504 42.3289 43.034 42.6149 43.1858 42.81C43.6663 43.3795 45.1352 42.7936 46.4401 41.5186L47.2047 40.7704L47.2961 39.1039C47.3852 37.1838 47.5639 36.4948 48.0743 35.8789C48.5547 35.3094 49.4249 34.8905 49.8895 35.0094C50.3541 35.1307 50.3542 35.5795 49.9352 36.9002C49.3493 38.7149 49.4108 42.8991 50.0108 42.8991C50.251 42.8991 51.4797 41.61 52.2608 40.5301L52.8444 39.7332L52.3797 39.2551C51.5694 38.3996 51.3749 37.8453 51.3749 36.4491C51.3749 35.4307 51.4504 35.0551 51.7042 34.5582C52.1254 33.7801 52.7846 33.2106 53.5651 32.9838C54.3889 32.7295 55.4096 33.1485 55.8286 33.8991C56.2499 34.6637 56.145 36.3735 55.6042 37.5453L55.2151 38.3991H55.7395C56.4602 38.3991 56.7444 38.2203 58.0352 37.0051C58.7102 36.36 59.4907 35.8039 60.0743 35.5338C62.37 34.4557 65.0711 35.0094 65.5194 36.6594C65.8944 37.9801 65.0711 38.9094 63.6292 38.8039C62.5944 38.7289 62.3999 38.4582 62.9999 37.9508C64.0797 37.0485 62.9999 35.8953 61.4547 36.3143C60.6145 36.5405 59.6694 37.4838 59.1754 38.5801C58.184 40.7704 58.7102 43.3496 60.134 43.3496C60.7042 43.3496 61.7108 42.2241 62.0999 41.1295C62.5645 39.8686 63.5395 39.0746 64.2743 39.36C64.6797 39.5094 64.7096 39.9143 64.4553 41.1893C64.1694 42.5856 64.1254 43.8905 64.3499 44.4899C64.4395 44.7137 64.7096 45.135 64.9657 45.4192C65.4438 45.9588 65.4602 46.1539 65.0547 46.41C64.8602 46.5448 64.6036 46.4856 63.9749 46.1405C63.1047 45.6893 62.3542 44.8789 62.084 44.1143L61.9194 43.6655L61.3194 44.1143C60.9737 44.3545 60.434 44.6246 60.12 44.7137C58.8749 45.0436 57.3438 44.1899 56.6254 42.7502C56.3389 42.1936 56.2499 40.56 56.4602 39.9301C56.5797 39.5844 56.5797 39.5844 56.0987 39.8246C55.845 39.96 55.3047 40.1088 54.8858 40.1545C54.1944 40.2307 54.0889 40.3057 53.4004 41.1752C52.4254 42.3881 50.6993 44.0252 49.9944 44.3709C48.4956 45.1192 48.001 44.9088 47.6096 43.3631L47.3395 42.3289L46.6938 42.8991C45.87 43.6198 44.22 44.4899 43.2743 44.7002C42.3749 44.8948 41.4139 44.6088 41.0243 44.0088C40.4413 43.1094 40.6358 41.2051 41.5645 38.6393C42.2536 36.735 41.7596 36.7057 40.02 38.5203C38.7292 39.8844 38.1749 40.8594 37.8157 42.3746C37.4407 43.9496 36.9895 44.5192 35.9711 44.7594C35.3553 44.8948 35.0688 44.5192 35.1907 43.6953L35.2797 43.0338L34.7096 43.4252C33.8993 43.9795 32.8786 44.4899 32.1737 44.6844C31.4688 44.8789 30.5395 44.6703 30.3151 44.2789C29.9102 43.5905 29.9102 43.5905 29.2809 44.0844C27.9145 45.1948 25.9645 44.8789 24.9754 43.4094L24.659 42.9448L23.6706 43.86C20.8188 46.4698 17.2504 47.6393 14.6096 46.8289C11.2493 45.8106 9.39067 42.9289 9.42056 38.7746C9.43462 34.6045 11.2792 30.21 14.3852 26.9551C16.1407 25.1241 17.7907 24.0436 19.4711 23.6387C20.684 23.3387 21.4211 23.3545 22.5743 23.7143V23.7137Z" fill="#00C4CC"/>
<path d="M52.9792 34.38C52.6493 34.7093 52.7706 36.03 53.1901 36.8703C53.4005 37.305 53.6249 37.6507 53.6999 37.6507C53.7597 37.6507 53.8944 37.305 53.9999 36.8837C54.3749 35.3251 53.6999 33.6587 52.9792 34.38Z" fill="#00C4CC"/>
</svg>
