<svg width="75" height="75" viewBox="0 0 75 75" fill="none" xmlns="http://www.w3.org/2000/svg">
<g opacity="0.5" clip-path="url(#clip0_43_420)">
<path d="M13.2813 6.04511e-06H61.7188C63.4633 -0.0016804 65.1911 0.349507 66.8032 1.03347C68.4153 1.71743 69.8801 2.72074 71.1137 3.98598C72.3473 5.25121 73.3255 6.75354 73.9924 8.40697C74.6592 10.0604 75.0016 11.8325 75 13.6218V61.3782C75.0016 63.1675 74.6592 64.9396 73.9924 66.593C73.3255 68.2465 72.3473 69.7488 71.1137 71.014C69.8801 72.2793 68.4153 73.2826 66.8032 73.9665C65.1911 74.6505 63.4633 75.0017 61.7188 75H13.2813C11.5367 75.0017 9.80889 74.6505 8.1968 73.9665C6.5847 73.2826 5.11993 72.2793 3.88633 71.014C2.65272 69.7488 1.67449 68.2465 1.00763 66.593C0.340769 64.9396 -0.00163839 63.1675 5.89399e-06 61.3782V13.6218C-0.00163839 11.8325 0.340769 10.0604 1.00763 8.40697C1.67449 6.75354 2.65272 5.25121 3.88633 3.98598C5.11993 2.72074 6.5847 1.71743 8.1968 1.03347C9.80889 0.349507 11.5367 -0.0016804 13.2813 6.04511e-06Z" fill="#2965F1"/>
<path d="M18.3582 30.9179L19.0961 39.1529H37.5246V30.9179H18.3582ZM16.875 14.25L17.6235 22.485H37.5246V14.25H16.875ZM37.5246 52.3052L37.4885 52.3148L28.3172 49.8383L27.7309 43.2706H19.4641L20.6177 56.2009L37.4867 60.8835L37.5246 60.8732V52.3052Z" fill="#EBEBEB"/>
<path d="M56.6386 30.9179L58.1251 14.25H37.4964V22.485H49.1002L48.3509 30.9179H37.4964V39.1529H47.6369L46.6808 49.8332L37.4961 52.3122V60.8796L54.3785 56.2009L54.5023 54.8095L56.4377 33.1292L56.6386 30.9179Z" fill="white"/>
</g>
<defs>
<clipPath id="clip0_43_420">
<rect width="75" height="75" fill="white"/>
</clipPath>
</defs>
</svg>
