<svg width="75" height="75" viewBox="0 0 75 75" fill="none" xmlns="http://www.w3.org/2000/svg">
<g clip-path="url(#clip0_43_383)">
<path d="M13.2813 6.04511e-06H61.7188C63.4633 -0.0016804 65.1911 0.349507 66.8032 1.03347C68.4153 1.71743 69.8801 2.72074 71.1137 3.98598C72.3473 5.25121 73.3255 6.75354 73.9924 8.40697C74.6592 10.0604 75.0016 11.8325 75 13.6218V61.3782C75.0016 63.1675 74.6592 64.9396 73.9924 66.593C73.3255 68.2465 72.3473 69.7488 71.1137 71.014C69.8801 72.2793 68.4153 73.2826 66.8032 73.9665C65.1911 74.6505 63.4633 75.0017 61.7188 75H13.2813C11.5367 75.0017 9.80889 74.6505 8.1968 73.9665C6.5847 73.2826 5.11993 72.2793 3.88633 71.014C2.65272 69.7488 1.67449 68.2465 1.00763 66.593C0.340769 64.9396 -0.00163839 63.1675 5.89399e-06 61.3782V13.6218C-0.00163839 11.8325 0.340769 10.0604 1.00763 8.40697C1.67449 6.75354 2.65272 5.25121 3.88633 3.98598C5.11993 2.72074 6.5847 1.71743 8.1968 1.03347C9.80889 0.349507 11.5367 -0.0016804 13.2813 6.04511e-06Z" fill="#000B1D"/>
<path d="M30.3125 60.375C34.6272 60.375 38.125 56.8772 38.125 52.5625V44.75H30.3125C25.9978 44.75 22.5 48.2478 22.5 52.5625C22.5 56.8772 25.9978 60.375 30.3125 60.375Z" fill="#0ACF83"/>
<path d="M22.5 36.9375C22.5 32.6228 25.9978 29.125 30.3125 29.125H38.125V44.75H30.3125C25.9978 44.75 22.5 41.2522 22.5 36.9375Z" fill="#A259FF"/>
<path d="M22.5 21.3125C22.5 16.9978 25.9978 13.5 30.3125 13.5H38.125V29.125H30.3125C25.9978 29.125 22.5 25.6272 22.5 21.3125Z" fill="#F24E1E"/>
<path d="M38.125 13.5H45.9375C50.2522 13.5 53.75 16.9978 53.75 21.3125C53.75 25.6272 50.2522 29.125 45.9375 29.125H38.125V13.5Z" fill="#FF7262"/>
<path d="M53.75 36.9375C53.75 41.2522 50.2522 44.75 45.9375 44.75C41.6228 44.75 38.125 41.2522 38.125 36.9375C38.125 32.6228 41.6228 29.125 45.9375 29.125C50.2522 29.125 53.75 32.6228 53.75 36.9375Z" fill="#1ABCFE"/>
</g>
<defs>
<clipPath id="clip0_43_383">
<rect width="75" height="75" fill="white"/>
</clipPath>
</defs>
</svg>
