<svg width="75" height="75" viewBox="0 0 75 75" fill="none" xmlns="http://www.w3.org/2000/svg">
<path d="M13.2813 6.04511e-06H61.7188C63.4633 -0.0016804 65.1911 0.349507 66.8032 1.03347C68.4153 1.71743 69.8801 2.72074 71.1137 3.98598C72.3473 5.25121 73.3255 6.75354 73.9924 8.40697C74.6592 10.0604 75.0016 11.8325 75 13.6218V61.3782C75.0016 63.1675 74.6592 64.9396 73.9924 66.593C73.3255 68.2465 72.3473 69.7488 71.1137 71.014C69.8801 72.2793 68.4153 73.2826 66.8032 73.9665C65.1911 74.6505 63.4633 75.0017 61.7188 75H13.2813C11.5367 75.0017 9.80889 74.6505 8.1968 73.9665C6.5847 73.2826 5.11993 72.2793 3.88633 71.014C2.65272 69.7488 1.67449 68.2465 1.00763 66.593C0.340769 64.9396 -0.00163839 63.1675 5.89399e-06 61.3782V13.6218C-0.00163839 11.8325 0.340769 10.0604 1.00763 8.40697C1.67449 6.75354 2.65272 5.25121 3.88633 3.98598C5.11993 2.72074 6.5847 1.71743 8.1968 1.03347C9.80889 0.349507 11.5367 -0.0016804 13.2813 6.04511e-06Z" fill="#F0F0F0"/>
<path d="M64.5645 34.9946L40.0037 10.4359C38.5905 9.02137 36.2966 9.02137 34.8817 10.4359L29.7819 15.5363L36.2508 22.0055C37.7547 21.4977 39.4784 21.8382 40.6766 23.0367C41.881 24.2426 42.219 25.9811 41.6985 27.4901L47.9334 33.7252C49.4418 33.2054 51.1822 33.5412 52.3866 34.7478C54.0705 36.4313 54.0705 39.1593 52.3866 40.8432C50.7024 42.5277 47.9746 42.5277 46.2895 40.8432C45.0233 39.576 44.7102 37.7155 45.3515 36.1554L39.5368 30.3405L39.5363 45.6424C39.9468 45.8456 40.3342 46.1169 40.6764 46.4576C42.3598 48.1409 42.3598 50.8683 40.6764 52.5544C38.9924 54.2377 36.2634 54.2377 34.5812 52.5544C32.8975 50.8684 32.8975 48.141 34.5812 46.4576C34.9973 46.0422 35.4788 45.7278 35.9925 45.517V30.0729C35.4785 29.8631 34.9976 29.551 34.5809 29.1323C33.3056 27.858 32.9985 25.9861 33.6525 24.42L27.2754 18.0417L10.4362 34.8812C9.02128 36.2967 9.02128 38.5907 10.4362 40.0053L34.9955 64.5641C36.4094 65.9786 38.7025 65.9786 40.1184 64.5641L64.5642 40.1214C65.9786 38.7062 65.9786 36.4115 64.5642 34.9967" fill="#F05133"/>
</svg>
