<svg width="75" height="75" viewBox="0 0 75 75" fill="none" xmlns="http://www.w3.org/2000/svg">
<g clip-path="url(#clip0_43_412)">
<path d="M13.2813 6.04511e-06H61.7188C63.4633 -0.0016804 65.1911 0.349507 66.8032 1.03347C68.4153 1.71743 69.8801 2.72074 71.1137 3.98598C72.3473 5.25121 73.3255 6.75354 73.9924 8.40697C74.6592 10.0604 75.0016 11.8325 75 13.6218V61.3782C75.0016 63.1675 74.6592 64.9396 73.9924 66.593C73.3255 68.2465 72.3473 69.7488 71.1137 71.014C69.8801 72.2793 68.4153 73.2826 66.8032 73.9665C65.1911 74.6505 63.4633 75.0017 61.7188 75H13.2813C11.5367 75.0017 9.80889 74.6505 8.1968 73.9665C6.5847 73.2826 5.11993 72.2793 3.88633 71.014C2.65272 69.7488 1.67449 68.2465 1.00763 66.593C0.340769 64.9396 -0.00163839 63.1675 5.89399e-06 61.3782V13.6218C-0.00163839 11.8325 0.340769 10.0604 1.00763 8.40697C1.67449 6.75354 2.65272 5.25121 3.88633 3.98598C5.11993 2.72074 6.5847 1.71743 8.1968 1.03347C9.80889 0.349507 11.5367 -0.0016804 13.2813 6.04511e-06Z" fill="#F7DF1E"/>
<path d="M50.5083 58.6845C52.019 61.1512 53.9845 62.9643 57.4607 62.9643C60.381 62.9643 62.2464 61.5048 62.2464 59.4881C62.2464 57.0714 60.3298 56.2155 57.1155 54.8095L55.3536 54.0536C50.2679 51.8869 46.8893 49.1726 46.8893 43.4345C46.8893 38.1488 50.9167 34.125 57.2107 34.125C61.6917 34.125 64.9131 35.6845 67.2345 39.7679L61.7464 43.2917C60.5381 41.125 59.2345 40.2714 57.2107 40.2714C55.1464 40.2714 53.8381 41.581 53.8381 43.2917C53.8381 45.406 55.1476 46.2619 58.1714 47.5714L59.9333 48.3262C65.9214 50.894 69.3024 53.5119 69.3024 59.3976C69.3024 65.7429 64.3179 69.219 57.6238 69.219C51.0786 69.219 46.85 66.1 44.781 62.0119L50.5083 58.6845ZM25.6119 59.2952C26.719 61.2595 27.7262 62.9202 30.1476 62.9202C32.4631 62.9202 33.9238 62.0143 33.9238 58.4917V34.5274H40.9714V58.5869C40.9714 65.8845 36.6929 69.2059 30.4476 69.2059C24.8048 69.2059 21.5369 66.2857 19.875 62.7684L25.6119 59.2952Z" fill="black"/>
</g>
<defs>
<clipPath id="clip0_43_412">
<rect width="75" height="75" fill="white"/>
</clipPath>
</defs>
</svg>
