<svg width="75" height="75" viewBox="0 0 75 75" fill="none" xmlns="http://www.w3.org/2000/svg">
<path fill-rule="evenodd" clip-rule="evenodd" d="M9.92227 1.00732C9.26191 1.05889 8.61328 1.05068 7.97402 1.22588C6.57539 1.60967 5.33262 2.22314 4.23633 3.16885C3.5918 3.72432 3.0293 4.32314 2.55176 5.02861C1.81465 6.11787 1.3125 7.28857 1.06055 8.60635C1.16133 8.78271 1.26738 8.96787 1.37988 9.15596C2.09414 10.3501 2.80898 11.536 3.525 12.729L5.40703 15.8585C5.98594 16.8229 6.56367 17.788 7.14141 18.7524L9.84141 23.2571L11.683 26.3298C12.5777 27.821 13.4748 29.311 14.3684 30.8028L17.6549 36.2937C18.6023 37.8751 19.5516 39.4554 20.5008 41.0356L20.6273 41.2196C20.765 41.2636 20.8746 41.2261 20.9883 41.1991C22.2387 40.8991 23.4891 40.6009 24.7395 40.302C26.7674 39.8175 28.7953 39.3347 30.8232 38.8495L33.9996 38.0895C36.0498 37.5997 38.1006 37.111 40.1508 36.62C42.2232 36.1243 44.2951 35.6263 46.3682 35.13C47.4158 34.8786 48.4635 34.6284 49.5117 34.3782C51.5396 33.8942 53.5676 33.4114 55.5955 32.9286L62.2213 31.3507L62.5793 31.254L62.4814 31.0601L60.6732 28.5042L58.8873 25.9759L56.9771 23.2782L55.1514 20.6925L53.342 18.1372L51.474 15.4964C50.8641 14.6351 50.2529 13.7749 49.6424 12.9142L48.6773 11.5513C48.5288 11.3437 48.4128 11.1147 48.3334 10.8722C48.1424 10.2798 48.3604 9.88545 48.7061 9.59424C48.9299 9.40498 49.1877 9.26611 49.4666 9.18408C49.854 9.06504 50.2471 8.96531 50.6443 8.88525C51.4406 8.73467 52.2422 8.60693 53.0414 8.47393L55.7508 8.03213C56.3221 7.93779 56.8928 7.83877 57.4641 7.74209C58.2404 7.61084 59.0168 7.479 59.7937 7.34951C60.5478 7.22295 61.302 7.09756 62.0561 6.97334L64.5246 6.56963L66.2379 6.28193C66.8895 6.17295 67.5404 6.06455 68.1914 5.95791C69.0035 5.82549 69.815 5.69189 70.6272 5.56475C71.1111 5.48916 71.5951 5.46279 72.0756 5.60107C72.432 5.70662 72.768 5.87164 73.0693 6.08916L73.4918 6.38389C73.534 6.28662 73.473 6.23389 73.4449 6.17822C72.8453 4.95567 71.9948 3.87317 70.9488 3.00127C69.9783 2.18583 68.8559 1.5705 67.6465 1.19072C66.9264 0.962793 66.1863 1.06885 65.4328 1.01201M32.6303 74.4142C32.5939 74.4142 32.5617 74.1505 32.5207 74.0808C31.6418 72.5808 30.7535 70.9706 29.8852 69.4653C28.7918 67.5676 27.7065 65.6652 26.6291 63.7583C25.4777 61.7204 24.3363 59.6767 23.1938 57.6341C22.108 55.6922 21.0242 53.7492 19.9424 51.8052C19.2891 50.6304 18.6398 49.4532 17.9871 48.2778L17.8137 48.0089L17.4961 48.0716C16.868 48.2339 16.241 48.3974 15.6141 48.5626C14.741 48.7923 13.8686 49.0261 12.9949 49.254C11.0338 49.7644 9.07266 50.2718 7.11152 50.7804C5.11699 51.2983 3.03867 51.8175 1.04355 52.3331C0.922266 52.3642 1.17188 52.3747 0.585938 52.3952V64.7849C0.827344 65.1692 0.804492 64.9882 0.819727 65.1147C0.866016 65.4815 0.941016 65.8513 1.00547 66.2145C1.24687 67.5681 1.79004 68.8073 2.5752 69.9358C3.72656 71.5917 5.25996 72.7753 7.13848 73.4995C7.80937 73.7573 8.50957 73.939 9.22559 74.0269L9.95273 74.219" fill="#FD4F31"/>
<path fill-rule="evenodd" clip-rule="evenodd" d="M2.91562 45.552C5.22363 45.003 7.53223 44.4546 9.84023 43.9067C10.8539 43.6665 11.8682 43.4292 12.8818 43.1878C13.3887 43.0671 13.8967 42.9522 14.3994 42.8163C14.8471 42.6956 14.9021 42.5473 14.6719 42.1436C14.3391 41.56 14.0004 40.98 13.6635 40.3981L10.6963 35.2888L7.73027 30.1788C6.72422 28.4456 5.71699 26.7124 4.71035 24.9798L2.1252 20.5325C1.75254 19.8915 1.3002 19.2487 0.925781 18.6083C0.856055 18.4917 1.17188 18.3522 0.585938 18.2901V46.0612C0.585938 46.0425 0.851367 46.0266 0.941016 46.005L2.91562 45.552ZM73.9594 65.4024C73.0547 65.7241 72.1494 66.0481 71.2453 66.3722L65.0666 68.5876C63.9223 68.9983 62.7803 69.4138 61.6354 69.8227C59.3022 70.6554 56.9678 71.485 54.634 72.3159C53.2816 72.7975 51.9287 73.3929 50.577 73.8768C50.2066 74.0098 49.8416 74.4141 49.4748 74.4141H64.9963L65.3303 74.2225C65.7252 74.2056 66.1137 74.0884 66.5016 74.0175C68.0947 73.7263 69.5215 73.0372 70.7854 72.03C71.7562 71.2559 72.5461 70.3097 73.1648 69.2304C73.8012 68.1194 74.1791 66.9177 74.3607 65.6556C74.3766 65.5466 74.4105 65.4229 74.3191 65.3104C74.1902 65.3005 74.0766 65.3608 73.9594 65.4024ZM72.6264 44.56C71.942 43.6237 71.2559 42.6891 70.5727 41.7522C69.6299 40.4591 68.6889 39.1647 67.7473 37.871C67.3646 37.346 66.9768 36.8251 66.6035 36.2942C66.491 36.1343 66.3627 36.0915 66.1875 36.1389L66.0873 36.1677C64.3541 36.5889 62.6203 37.0091 60.8865 37.4292L57.7799 38.1833L51.7025 39.6593C49.6992 40.1462 47.6959 40.6337 45.692 41.1194L39.4447 42.6323C37.3957 43.1298 35.3479 43.629 33.2994 44.127L27.3568 45.5696C26.3098 45.8239 25.2627 46.077 24.2168 46.3325C24.0627 46.37 23.8969 46.3794 23.7328 46.5036L23.8729 46.7702C25.7423 50.0015 27.6169 53.2298 29.4967 56.4552C30.5947 58.3378 31.6957 60.2192 32.7955 62.1013C33.4277 63.1823 34.0559 64.2645 34.6934 65.3427C35.4004 66.5408 36.1139 67.7352 36.8338 68.9257C37.05 69.2813 37.2955 69.6212 37.5428 69.9563C37.7083 70.1816 37.9166 70.3721 38.1557 70.5171C38.4053 70.6677 38.6742 70.7151 38.9578 70.6513C39.1043 70.6179 39.2479 70.5698 39.3896 70.5206L39.9111 70.3272C41.8078 69.6786 43.7039 69.03 45.6012 68.3837C47.0812 67.8798 48.5631 67.3782 50.0443 66.8772C51.5145 66.3786 52.9857 65.8823 54.4564 65.386L58.8357 63.9071C60.3287 63.4026 61.8211 62.8981 63.3135 62.3925C65.1451 61.7708 66.9762 61.1468 68.809 60.5263C70.5756 59.9286 72.3439 59.3345 74.1111 58.738C74.2195 58.7016 74.3391 58.6864 74.4287 58.5675L74.4398 58.3102C74.4404 54.6452 74.4393 50.9796 74.4434 47.3145C74.4471 47.1297 74.3873 46.9491 74.274 46.803C73.7186 46.0595 73.1742 45.3083 72.6264 44.56ZM72.3223 10.0261C71.9109 9.50516 71.3871 9.33993 70.7449 9.5075C70.4654 9.58075 70.1783 9.62704 69.8936 9.67918C68.9596 9.85028 68.0244 10.0184 67.0904 10.1878C65.7229 10.4362 64.3559 10.687 62.9883 10.9331C61.9055 11.1276 60.8221 11.3192 59.7387 11.5091L55.3922 12.2696C55.21 12.3013 55.026 12.3329 54.8502 12.3891C54.5941 12.4712 54.5203 12.6317 54.6375 12.8725C54.733 13.0694 54.852 13.2575 54.9809 13.4345C55.8797 14.6731 56.7826 15.9089 57.6855 17.1452C58.9301 18.8497 60.1752 20.5536 61.4203 22.2569C62.4738 23.6983 63.5285 25.1397 64.5826 26.5806C65.4111 27.7126 66.2396 28.8446 67.0693 29.9761L67.2328 30.1741L74.4229 28.397L74.4398 28.0243C74.4404 23.0374 74.4393 18.0505 74.4434 13.063C74.4434 12.8427 74.39 12.6657 74.2512 12.4911C73.6465 11.7276 73.0529 10.9554 72.4547 10.1866L72.3223 10.0261ZM74.2564 34.1907C73.1689 34.452 72.0773 34.7005 70.9635 34.9952C71.0813 35.2044 74.1363 39.3282 74.3139 39.5239L74.4252 39.5854L74.4375 39.3341L74.4381 37.5979C74.4387 36.5907 74.441 35.5835 74.4387 34.5763C74.4387 34.4538 74.4732 34.322 74.3889 34.1977L74.2564 34.1907Z" fill="#FD4F31"/>
</svg>
