<svg width="75" height="75" viewBox="0 0 75 75" fill="none" xmlns="http://www.w3.org/2000/svg">
<g clip-path="url(#clip0_43_425)">
<path d="M13.2813 6.04511e-06H61.7188C63.4633 -0.0016804 65.1911 0.349507 66.8032 1.03347C68.4153 1.71743 69.8801 2.72074 71.1137 3.98598C72.3473 5.25121 73.3255 6.75354 73.9924 8.40697C74.6592 10.0604 75.0016 11.8325 75 13.6218V61.3782C75.0016 63.1675 74.6592 64.9396 73.9924 66.593C73.3255 68.2465 72.3473 69.7488 71.1137 71.014C69.8801 72.2793 68.4153 73.2826 66.8032 73.9665C65.1911 74.6505 63.4633 75.0017 61.7188 75H13.2813C11.5367 75.0017 9.80889 74.6505 8.1968 73.9665C6.5847 73.2826 5.11993 72.2793 3.88633 71.014C2.65272 69.7488 1.67449 68.2465 1.00763 66.593C0.340769 64.9396 -0.00163839 63.1675 5.89399e-06 61.3782V13.6218C-0.00163839 11.8325 0.340769 10.0604 1.00763 8.40697C1.67449 6.75354 2.65272 5.25121 3.88633 3.98598C5.11993 2.72074 6.5847 1.71743 8.1968 1.03347C9.80889 0.349507 11.5367 -0.0016804 13.2813 6.04511e-06Z" fill="#777BB3"/>
<path d="M17.6924 41.8818C19.516 41.8818 20.8774 41.5455 21.7388 40.8826C22.591 40.2264 23.1795 39.0897 23.488 37.504C23.7757 36.0218 23.6661 34.9869 23.1625 34.4284C22.6475 33.858 21.5342 33.5687 19.8534 33.5687H16.9391L15.3235 41.8818H17.6924ZM8.16059 52.1221C8.02532 52.1221 7.89684 52.0616 7.81084 51.957C7.72468 51.8526 7.68977 51.715 7.71562 51.5822L11.9973 29.5522C12.0387 29.3393 12.2254 29.1854 12.4425 29.1854H21.6706C24.5709 29.1854 26.7296 29.9729 28.0864 31.5262C29.4505 33.0877 29.8718 35.2705 29.3384 38.0136C29.1213 39.1312 28.748 40.1692 28.2288 41.0984C27.709 42.0287 27.022 42.8895 26.1866 43.6573C25.1866 44.5932 24.0548 45.2719 22.8257 45.6712C21.6161 46.0653 20.0626 46.2651 18.2084 46.2651H14.4718L13.4047 51.7551C13.3633 51.9682 13.1767 52.1221 12.9597 52.1221H8.16059Z" fill="black"/>
<path d="M17.313 34.022H19.8535C21.882 34.022 22.5867 34.4672 22.8261 34.7324C23.2233 35.1729 23.2983 36.1015 23.043 37.4179C22.7561 38.8916 22.2244 39.9365 21.4623 40.5232C20.6821 41.1239 19.4136 41.4283 17.6925 41.4283H15.8736L17.313 34.022ZM21.6707 28.7319H12.4424C12.0083 28.7319 11.6351 29.0396 11.5523 29.4657L7.27059 51.4956C7.21889 51.7615 7.28873 52.0364 7.46088 52.2455C7.63319 52.4545 7.88984 52.5754 8.1607 52.5754H12.9596C13.3939 52.5754 13.7671 52.2677 13.8499 51.8416L14.8457 46.7185H18.2085C20.1103 46.7185 21.7112 46.5111 22.9665 46.1022C24.2575 45.6828 25.4452 44.9716 26.4964 43.9886C27.3658 43.1887 28.082 42.2909 28.6246 41.3198C29.1674 40.3483 29.5573 39.2651 29.7836 38.1C30.3451 35.2125 29.8889 32.9002 28.4279 31.2279C26.9812 29.5717 24.7076 28.7319 21.6707 28.7319ZM14.7734 42.3352H17.6925C19.6274 42.3352 21.0686 41.9708 22.0155 41.2418C22.9626 40.5126 23.6013 39.2957 23.9333 37.5905C24.2508 35.9533 24.1062 34.7979 23.4993 34.1248C22.8917 33.4518 21.6766 33.1152 19.8535 33.1152H16.5654L14.7734 42.3352ZM21.6707 29.6388C24.4469 29.6388 26.4721 30.3673 27.7451 31.8245C29.0179 33.2817 29.4012 35.3157 28.8933 37.9271C28.6843 39.0028 28.3308 39.9863 27.833 40.8774C27.3347 41.769 26.684 42.5843 25.8799 43.3235C24.9216 44.2203 23.8571 44.8593 22.6857 45.2399C21.5143 45.6216 20.0223 45.8116 18.2085 45.8116H14.0979L12.9596 51.6686H8.1607L12.4424 29.6388H21.6707Z" fill="white"/>
<path d="M40.3417 46.2651C40.2063 46.2651 40.0779 46.2047 39.9919 46.1001C39.9056 45.9956 39.8707 45.8582 39.8966 45.7252L41.7906 35.9779C41.9708 35.0509 41.9263 34.3855 41.6656 34.1044C41.506 33.9325 41.0265 33.6443 39.6089 33.6443H36.1776L33.7962 45.8981C33.7548 46.1113 33.5681 46.2651 33.3511 46.2651H28.5899C28.4545 46.2651 28.3262 46.2047 28.24 46.1001C28.1539 45.9956 28.119 45.8581 28.1448 45.7252L32.4265 23.6953C32.4679 23.4823 32.6546 23.3285 32.8717 23.3285H37.6328C37.7682 23.3285 37.8966 23.3889 37.9827 23.4934C38.0689 23.598 38.1038 23.7354 38.0779 23.8684L37.0447 29.1854H40.736C43.5481 29.1854 45.455 29.6812 46.5657 30.7011C47.6977 31.7416 48.051 33.4053 47.6157 35.6466L45.6235 45.8981C45.5821 46.1113 45.3956 46.2651 45.1784 46.2651H40.3417Z" fill="black"/>
<path d="M37.6329 22.8747H32.8718C32.4375 22.8747 32.0643 23.1824 31.9815 23.6085L27.6998 45.6385C27.6481 45.9043 27.7179 46.1793 27.8902 46.3883C28.0625 46.5973 28.3192 46.7183 28.59 46.7183H33.3512C33.7853 46.7183 34.1586 46.4105 34.2415 45.9844L36.5515 34.0974H39.609C41.0242 34.0974 41.3212 34.3997 41.3332 34.4127C41.419 34.5051 41.5319 34.9328 41.3456 35.8911L39.4515 45.6385C39.3998 45.9043 39.4697 46.1793 39.642 46.3883C39.8143 46.5973 40.0709 46.7183 40.3418 46.7183H45.1785C45.6126 46.7183 45.9859 46.4105 46.0688 45.9844L48.0607 35.7328C48.5282 33.3264 48.1283 31.5213 46.8726 30.3671C45.6743 29.2666 43.667 28.7317 40.7361 28.7317H37.5947L38.5232 23.9547C38.5747 23.6888 38.505 23.4137 38.3327 23.2048C38.1604 22.9958 37.9038 22.8747 37.6329 22.8747ZM37.6329 23.7816L36.4946 29.6386H40.7361C43.4049 29.6386 45.2458 30.1044 46.2589 31.0349C47.2721 31.9659 47.5756 33.4745 47.1706 35.5599L45.1785 45.8114H40.3418L42.2358 36.0642C42.4514 34.9553 42.3722 34.199 41.9979 33.7957C41.6235 33.3925 40.8271 33.1905 39.609 33.1905H35.8037L33.3512 45.8114H28.59L32.8718 23.7816H37.6329Z" fill="white"/>
<path d="M55.1492 41.8818C56.9728 41.8818 58.3342 41.5455 59.1956 40.8826C60.0477 40.2266 60.6363 39.0898 60.945 37.504C61.2326 36.0218 61.123 34.9869 60.6192 34.4284C60.1043 33.858 58.9909 33.5687 57.3102 33.5687H54.3959L52.7803 41.8818H55.1492ZM45.6175 52.1221C45.4822 52.1221 45.3538 52.0616 45.2678 51.957C45.1816 51.8526 45.1465 51.715 45.1724 51.5822L49.4541 29.5522C49.4957 29.3393 49.6822 29.1854 49.8994 29.1854H59.1274C62.0278 29.1854 64.1863 29.9729 65.5433 31.5262C66.9074 33.0876 67.3285 35.2703 66.7953 38.0136C66.5779 39.1312 66.2048 40.1692 65.6856 41.0984C65.1658 42.0287 64.4788 42.8895 63.6434 43.6573C62.6434 44.5932 61.5116 45.2719 60.2825 45.6712C59.0728 46.0653 57.5193 46.2651 55.6652 46.2651H51.9284L50.8617 51.7551C50.8202 51.9682 50.6337 52.1221 50.4165 52.1221H45.6175Z" fill="black"/>
<path d="M54.7699 34.022H57.3104C59.3389 34.022 60.0436 34.4672 60.283 34.7324C60.6804 35.1729 60.7553 36.1015 60.4999 37.4177C60.213 38.8916 59.6811 39.9365 58.9192 40.5232C58.139 41.1239 56.8705 41.4283 55.1494 41.4283H53.3306L54.7699 34.022ZM59.1276 28.7319H49.8994C49.4653 28.7319 49.0922 29.0396 49.0093 29.4657L44.7276 51.4956C44.6759 51.7615 44.7458 52.0364 44.9179 52.2455C45.0902 52.4545 45.3469 52.5754 45.6177 52.5754H50.4167C50.8508 52.5754 51.2241 52.2677 51.3069 51.8416L52.3025 46.7185H55.6654C57.5672 46.7185 59.1681 46.5111 60.4234 46.1022C61.7144 45.6828 62.9024 44.9715 63.9536 43.9883C64.823 43.1886 65.5389 42.2909 66.0815 41.3198C66.6242 40.3483 67.0142 39.2651 67.2405 38.1C67.802 35.2123 67.3458 32.9001 65.8848 31.2278C64.438 29.5717 62.1646 28.7319 59.1276 28.7319ZM52.2304 42.3352H55.1494C57.0843 42.3352 58.5254 41.9708 59.4724 41.2418C60.4196 40.5126 61.0582 39.2957 61.3902 37.5905C61.7079 35.9533 61.5632 34.7979 60.9562 34.1248C60.3486 33.4518 59.1335 33.1152 57.3104 33.1152H54.0223L52.2304 42.3352ZM59.1276 29.6388C61.9038 29.6388 63.929 30.3673 65.2019 31.8245C66.4749 33.2817 66.8581 35.3157 66.3502 37.9271C66.1412 39.0028 65.7876 39.9863 65.2899 40.8774C64.7916 41.769 64.1409 42.5843 63.3368 43.3235C62.3785 44.2203 61.314 44.8593 60.1426 45.2399C58.9712 45.6216 57.4792 45.8116 55.6654 45.8116H51.5548L50.4167 51.6686H45.6177L49.8994 29.6388H59.1276Z" fill="white"/>
</g>
<defs>
<clipPath id="clip0_43_425">
<rect width="75" height="75" fill="white"/>
</clipPath>
</defs>
</svg>
