<svg width="75" height="75" viewBox="0 0 75 75" fill="none" xmlns="http://www.w3.org/2000/svg">
<path d="M13.2813 6.04511e-06H61.7188C63.4633 -0.0016804 65.1911 0.349507 66.8032 1.03347C68.4153 1.71743 69.8801 2.72074 71.1137 3.98598C72.3473 5.25121 73.3255 6.75354 73.9924 8.40697C74.6592 10.0604 75.0016 11.8325 75 13.6218V61.3782C75.0016 63.1675 74.6592 64.9396 73.9924 66.593C73.3255 68.2465 72.3473 69.7488 71.1137 71.014C69.8801 72.2793 68.4153 73.2826 66.8032 73.9665C65.1911 74.6505 63.4633 75.0017 61.7188 75H13.2813C11.5367 75.0017 9.80889 74.6505 8.1968 73.9665C6.5847 73.2826 5.11993 72.2793 3.88633 71.014C2.65272 69.7488 1.67449 68.2465 1.00763 66.593C0.340769 64.9396 -0.00163839 63.1675 5.89399e-06 61.3782V13.6218C-0.00163839 11.8325 0.340769 10.0604 1.00763 8.40697C1.67449 6.75354 2.65272 5.25121 3.88633 3.98598C5.11993 2.72074 6.5847 1.71743 8.1968 1.03347C9.80889 0.349507 11.5367 -0.0016804 13.2813 6.04511e-06Z" fill="#000B1D"/>
<path d="M61.6683 17.1069L50.9502 11.9464C49.7096 11.349 48.227 11.601 47.2534 12.5746L12.1663 44.5658C11.2226 45.4262 11.2237 46.912 12.1687 47.7711L15.0347 50.3766C15.8073 51.079 16.9708 51.1307 17.8026 50.4996L60.0555 18.4457C61.4731 17.3703 63.5091 18.3814 63.5091 20.1606V20.0362C63.5091 18.7873 62.7936 17.6487 61.6683 17.1069Z" fill="#0065A9"/>
<g filter="url(#filter0_d_43_401)">
<path d="M61.6683 57.8932L50.9502 63.0538C49.7096 63.6512 48.227 63.3991 47.2534 62.4255L12.1663 30.4344C11.2226 29.5739 11.2237 28.0881 12.1687 27.229L15.0347 24.6235C15.8073 23.9211 16.9708 23.8694 17.8026 24.5005L60.0555 56.5544C61.4731 57.6298 63.5091 56.6187 63.5091 54.8395V54.9639C63.5091 56.2128 62.7936 57.3514 61.6683 57.8932Z" fill="#007ACC"/>
</g>
<g filter="url(#filter1_d_43_401)">
<path d="M50.9508 63.0546C49.7098 63.6517 48.2271 63.3991 47.2534 62.4254C48.4532 63.6251 50.5046 62.7754 50.5046 61.0787V13.9213C50.5046 12.2246 48.4532 11.3749 47.2534 12.5746C48.2271 11.6009 49.7098 11.3486 50.9508 11.9454L61.667 17.0988C62.793 17.6404 63.5091 18.7793 63.5091 20.0288V54.9714C63.5091 56.2209 62.793 57.3598 61.6669 57.9014L50.9508 63.0546Z" fill="#1F9CF0"/>
</g>
<g style="mix-blend-mode:overlay" opacity="0.25">
<path style="mix-blend-mode:overlay" fill-rule="evenodd" clip-rule="evenodd" d="M48.3463 63.1539C49.1656 63.473 50.0999 63.4526 50.9267 63.0547L61.6364 57.9014C62.7618 57.3599 63.4774 56.2209 63.4774 54.9714V20.0288C63.4774 18.7793 62.7618 17.6403 61.6365 17.0988L50.9267 11.9454C49.8415 11.4232 48.5714 11.5511 47.6189 12.2435C47.4829 12.3425 47.3532 12.4529 47.2316 12.5746L26.7292 31.2793L17.7988 24.5004C16.9675 23.8694 15.8046 23.9211 15.0325 24.6234L12.1683 27.2289C11.2238 28.088 11.2227 29.5738 12.1659 30.4343L19.9107 37.5L12.1659 44.5657C11.2227 45.4262 11.2238 46.912 12.1683 47.7711L15.0325 50.3766C15.8046 51.0789 16.9675 51.1306 17.7988 50.4996L26.7292 43.7206L47.2316 62.4254C47.556 62.7499 47.9368 62.9943 48.3463 63.1539ZM50.4808 25.6913L34.9242 37.5L50.4808 49.3088V25.6913Z" fill="url(#paint0_linear_43_401)"/>
</g>
<defs>
<filter id="filter0_d_43_401" x="3.12589" y="15.7265" width="68.7165" height="55.9816" filterUnits="userSpaceOnUse" color-interpolation-filters="sRGB">
<feFlood flood-opacity="0" result="BackgroundImageFix"/>
<feColorMatrix in="SourceAlpha" type="matrix" values="0 0 0 0 0 0 0 0 0 0 0 0 0 0 0 0 0 0 127 0" result="hardAlpha"/>
<feOffset/>
<feGaussianBlur stdDeviation="4.16667"/>
<feColorMatrix type="matrix" values="0 0 0 0 0 0 0 0 0 0 0 0 0 0 0 0 0 0 0.25 0"/>
<feBlend mode="overlay" in2="BackgroundImageFix" result="effect1_dropShadow_43_401"/>
<feBlend mode="normal" in="SourceGraphic" in2="effect1_dropShadow_43_401" result="shape"/>
</filter>
<filter id="filter1_d_43_401" x="38.9201" y="3.29166" width="32.9223" height="68.4167" filterUnits="userSpaceOnUse" color-interpolation-filters="sRGB">
<feFlood flood-opacity="0" result="BackgroundImageFix"/>
<feColorMatrix in="SourceAlpha" type="matrix" values="0 0 0 0 0 0 0 0 0 0 0 0 0 0 0 0 0 0 127 0" result="hardAlpha"/>
<feOffset/>
<feGaussianBlur stdDeviation="4.16667"/>
<feColorMatrix type="matrix" values="0 0 0 0 0 0 0 0 0 0 0 0 0 0 0 0 0 0 0.25 0"/>
<feBlend mode="overlay" in2="BackgroundImageFix" result="effect1_dropShadow_43_401"/>
<feBlend mode="normal" in="SourceGraphic" in2="effect1_dropShadow_43_401" result="shape"/>
</filter>
<linearGradient id="paint0_linear_43_401" x1="37.4683" y1="11.625" x2="37.4683" y2="63.375" gradientUnits="userSpaceOnUse">
<stop stop-color="white"/>
<stop offset="1" stop-color="white" stop-opacity="0"/>
</linearGradient>
</defs>
</svg>
