<svg xmlns="http://www.w3.org/2000/svg" xmlns:xlink="http://www.w3.org/1999/xlink" width="1920" zoomAndPan="magnify" viewBox="0 0 1440 809.999993" height="1080" preserveAspectRatio="xMidYMid meet" version="1.0"><defs><g/></defs><rect x="-144" width="1728" fill="#ffffff" y="-80.999999" height="971.999992" fill-opacity="1"/><rect x="-144" width="1728" fill="#ffffff" y="-80.999999" height="971.999992" fill-opacity="1"/><rect x="-144" width="1728" fill="#141c3a" y="-80.999999" height="971.999992" fill-opacity="1"/><g fill="#ffffff" fill-opacity="1"><g transform="translate(211.505854, 516.749994)"><g><path d="M 10.546875 0 L 10.546875 -238.421875 L 106.03125 -238.421875 L 106.03125 -192.34375 L 59.125 -192.34375 L 59.125 -146 L 104.09375 -146 L 104.09375 -101.03125 L 59.125 -101.03125 L 59.125 -46.359375 L 109.078125 -46.359375 L 109.078125 0 Z M 10.546875 0 "/></g></g></g><g fill="#ffffff" fill-opacity="1"><g transform="translate(325.860352, 516.749994)"><g><path d="M 9.71875 -203.171875 L 57.171875 -203.171875 L 57.171875 -179.578125 C 59.398438 -188.273438 63.195312 -194.75 68.5625 -199 C 73.925781 -203.257812 81.507812 -205.390625 91.3125 -205.390625 C 99.269531 -205.390625 106.160156 -203.585938 111.984375 -199.984375 C 117.816406 -196.378906 121.9375 -191.429688 124.34375 -185.140625 C 128.414062 -192.171875 132.945312 -197.300781 137.9375 -200.53125 C 142.9375 -203.769531 149.878906 -205.390625 158.765625 -205.390625 C 174.679688 -205.390625 185.738281 -200.53125 191.9375 -190.8125 C 198.132812 -181.101562 201.234375 -167 201.234375 -148.5 L 200.671875 0 L 151.828125 0 L 151.828125 -149.328125 C 151.828125 -162.460938 148.492188 -169.03125 141.828125 -169.03125 C 137.203125 -169.03125 133.867188 -166.765625 131.828125 -162.234375 C 129.796875 -157.703125 128.78125 -152.289062 128.78125 -146 L 128.78125 0 L 80.21875 0 L 80.21875 -149.328125 C 80.21875 -155.066406 79.613281 -159.691406 78.40625 -163.203125 C 77.207031 -166.722656 74.664062 -168.484375 70.78125 -168.484375 C 65.78125 -168.484375 62.257812 -166.03125 60.21875 -161.125 C 58.1875 -156.21875 57.171875 -150.34375 57.171875 -143.5 L 57.171875 0 L 9.71875 0 Z M 9.71875 -203.171875 "/></g></g></g><g fill="#ffffff" fill-opacity="1"><g transform="translate(536.250447, 516.749994)"><g/></g></g><g fill="#ffffff" fill-opacity="1"><g transform="translate(601.199327, 516.749994)"><g><path d="M 10.546875 -238.421875 L 75.21875 -238.421875 C 92.613281 -238.421875 105.242188 -234.164062 113.109375 -225.65625 C 120.972656 -217.144531 124.90625 -203.269531 124.90625 -184.03125 L 124.90625 -173.484375 C 124.90625 -150.722656 116.765625 -137.117188 100.484375 -132.671875 C 110.472656 -130.078125 117.5 -124.0625 121.5625 -114.625 C 125.632812 -105.195312 127.671875 -92.707031 127.671875 -77.15625 C 127.671875 -51.8125 123.878906 -32.613281 116.296875 -19.5625 C 108.710938 -6.519531 95.019531 0 75.21875 0 L 10.546875 0 Z M 66.890625 -148.78125 C 70.960938 -148.78125 73.738281 -150.304688 75.21875 -153.359375 C 76.695312 -156.410156 77.4375 -160.710938 77.4375 -166.265625 L 77.4375 -190.125 C 77.4375 -197.894531 74.015625 -201.78125 67.171875 -201.78125 L 57.171875 -201.78125 L 57.171875 -148.78125 Z M 61.890625 -41.90625 C 74.296875 -41.90625 80.5 -47.828125 80.5 -59.671875 L 80.5 -89.375 C 80.5 -96.59375 79.429688 -102.050781 77.296875 -105.75 C 75.171875 -109.445312 71.425781 -111.296875 66.0625 -111.296875 L 57.171875 -111.296875 L 57.171875 -42.1875 Z M 61.890625 -41.90625 "/></g></g></g><g fill="#ffffff" fill-opacity="1"><g transform="translate(734.150327, 516.749994)"><g><path d="M 9.71875 -203.171875 L 58.28125 -203.171875 L 58.28125 -180.6875 C 60.6875 -188.644531 64.894531 -194.796875 70.90625 -199.140625 C 76.925781 -203.492188 84.378906 -205.671875 93.265625 -205.671875 L 93.265625 -165.15625 C 86.410156 -165.15625 78.863281 -164.179688 70.625 -162.234375 C 62.394531 -160.296875 58.28125 -158.03125 58.28125 -155.4375 L 58.28125 0 L 9.71875 0 Z M 9.71875 -203.171875 "/></g></g></g><g fill="#ffffff" fill-opacity="1"><g transform="translate(829.630807, 516.749994)"><g><path d="M 66.609375 2.21875 C 45.703125 2.21875 30.710938 -3.515625 21.640625 -14.984375 C 12.578125 -26.460938 8.046875 -43.582031 8.046875 -66.34375 L 8.046875 -147.9375 C 8.046875 -166.625 13.410156 -180.867188 24.140625 -190.671875 C 34.878906 -200.484375 49.867188 -205.390625 69.109375 -205.390625 C 108.148438 -205.390625 127.671875 -186.238281 127.671875 -147.9375 L 127.671875 -133.234375 C 127.671875 -118.429688 127.488281 -106.398438 127.125 -97.140625 L 56.625 -97.140625 L 56.625 -57.734375 C 56.625 -50.703125 57.363281 -45.195312 58.84375 -41.21875 C 60.320312 -37.238281 63.46875 -35.25 68.28125 -35.25 C 71.976562 -35.25 74.613281 -36.359375 76.1875 -38.578125 C 77.757812 -40.796875 78.6875 -43.335938 78.96875 -46.203125 C 79.25 -49.078125 79.390625 -53.289062 79.390625 -58.84375 L 79.390625 -78.546875 L 127.671875 -78.546875 L 127.671875 -66.890625 C 127.671875 -43.203125 123.09375 -25.757812 113.9375 -14.5625 C 104.78125 -3.375 89.003906 2.21875 66.609375 2.21875 Z M 79.390625 -121.296875 L 79.390625 -147.390625 C 79.390625 -162.003906 75.78125 -169.3125 68.5625 -169.3125 C 60.414062 -169.3125 56.34375 -162.003906 56.34375 -147.390625 L 56.34375 -121.296875 Z M 79.390625 -121.296875 "/></g></g></g><g fill="#ffffff" fill-opacity="1"><g transform="translate(965.079862, 516.749994)"><g><path d="M 35.53125 0 L 3.046875 -203.171875 L 51.625 -203.171875 L 61.625 -100.484375 L 63.28125 -67.453125 L 65.234375 -100.75 L 76.328125 -203.171875 L 124.90625 -203.171875 L 91.875 0 Z M 35.53125 0 "/></g></g></g><g fill="#ffffff" fill-opacity="1"><g transform="translate(1093.034783, 516.749994)"><g><path d="M 66.609375 2.21875 C 45.703125 2.21875 30.710938 -3.515625 21.640625 -14.984375 C 12.578125 -26.460938 8.046875 -43.582031 8.046875 -66.34375 L 8.046875 -147.9375 C 8.046875 -166.625 13.410156 -180.867188 24.140625 -190.671875 C 34.878906 -200.484375 49.867188 -205.390625 69.109375 -205.390625 C 108.148438 -205.390625 127.671875 -186.238281 127.671875 -147.9375 L 127.671875 -133.234375 C 127.671875 -118.429688 127.488281 -106.398438 127.125 -97.140625 L 56.625 -97.140625 L 56.625 -57.734375 C 56.625 -50.703125 57.363281 -45.195312 58.84375 -41.21875 C 60.320312 -37.238281 63.46875 -35.25 68.28125 -35.25 C 71.976562 -35.25 74.613281 -36.359375 76.1875 -38.578125 C 77.757812 -40.796875 78.6875 -43.335938 78.96875 -46.203125 C 79.25 -49.078125 79.390625 -53.289062 79.390625 -58.84375 L 79.390625 -78.546875 L 127.671875 -78.546875 L 127.671875 -66.890625 C 127.671875 -43.203125 123.09375 -25.757812 113.9375 -14.5625 C 104.78125 -3.375 89.003906 2.21875 66.609375 2.21875 Z M 79.390625 -121.296875 L 79.390625 -147.390625 C 79.390625 -162.003906 75.78125 -169.3125 68.5625 -169.3125 C 60.414062 -169.3125 56.34375 -162.003906 56.34375 -147.390625 L 56.34375 -121.296875 Z M 79.390625 -121.296875 "/></g></g></g></svg>